<?xml version="1.0" encoding="utf-8"?>
<!-- Generator: Adobe Illustrator 20.1.0, SVG Export Plug-In . SVG Version: 6.00 Build 0)  -->
<svg version="1.1" id="Layer_1" xmlns="http://www.w3.org/2000/svg" xmlns:xlink="http://www.w3.org/1999/xlink" x="0px" y="0px"
	 width="1000px" height="1000px" viewBox="0 0 1000 1000" style="enable-background:new 0 0 1000 1000;" xml:space="preserve">
<g>
	<path d="M91.5,782.8c6.8,9.8,14,19.4,21.5,28.7h774c7.5-9.3,14.7-18.9,21.5-28.7H91.5z"/>
	<path d="M146.1,848.7c8.4,8.5,17.1,16.7,26.1,24.6h655.5c9-7.9,17.7-16.1,26.1-24.6H146.1z"/>
	<path d="M53,717.2c5.3,10.9,11.1,21.5,17.1,31.9h859.8c6-10.4,11.8-21,17.1-31.9H53z"/>
	<path d="M981.7,377.7C927.2,162.4,732.2,3.1,500,3.1S72.8,162.4,18.3,377.7H981.7z"/>
	<path d="M3.1,500c0,0.8,0.1,1.7,0.1,2.5h993.7c0-0.8,0.1-1.7,0.1-2.5c0-16.1-0.8-32-2.3-47.7H5.4C3.9,468,3.1,483.9,3.1,500z"/>
	<path d="M15.8,388.8C12,405.2,9.1,422,7,439H993c-2.1-17-5-33.8-8.8-50.2H15.8z"/>
	<path d="M26.3,650.1c4,12.8,8.6,25.3,13.6,37.5h920.2c5-12.3,9.6-24.8,13.6-37.5H26.3z"/>
	<path d="M262.4,936.5C333,975,413.9,996.9,500,996.9s167-21.9,237.6-60.4H262.4z"/>
	<path d="M10.3,584.1c2.4,13.9,5.2,27.7,8.7,41.2h961.9c3.5-13.5,6.3-27.2,8.7-41.2H10.3z"/>
	<path d="M3.6,520.9c0.6,14.5,1.9,28.8,3.7,43h985.3c1.8-14.2,3.1-28.5,3.7-43H3.6z"/>
</g>
</svg>
